<svg width="157" height="332" viewBox="0 0 157 332" fill="none" xmlns="http://www.w3.org/2000/svg">
<rect width="157" height="39" fill="#DE3939"/>
<path d="M11.5 29.196C11.108 29.196 10.772 29.0653 10.492 28.804C10.2307 28.524 10.1 28.188 10.1 27.796V11.64C10.1 11.248 10.2307 10.9213 10.492 10.66C10.772 10.38 11.108 10.24 11.5 10.24H22.672C23.064 10.24 23.3907 10.38 23.652 10.66C23.9133 10.9213 24.044 11.248 24.044 11.64C24.044 12.0133 23.9133 12.34 23.652 12.62C23.3907 12.9 23.064 13.04 22.672 13.04H12.9V17.856H20.348C20.74 17.856 21.0667 17.996 21.328 18.276C21.5893 18.556 21.72 18.892 21.72 19.284C21.72 19.6573 21.5893 19.984 21.328 20.264C21.0667 20.5253 20.74 20.656 20.348 20.656H12.9V27.796C12.9 28.188 12.76 28.524 12.48 28.804C12.2187 29.0653 11.892 29.196 11.5 29.196ZM26.5655 29C26.1735 29 25.8375 28.8693 25.5575 28.608C25.2962 28.328 25.1655 27.992 25.1655 27.6C25.1655 27.208 25.2962 26.8813 25.5575 26.62C25.8375 26.34 26.1735 26.2 26.5655 26.2H28.5255V13.04H26.5655C26.1735 13.04 25.8375 12.9 25.5575 12.62C25.2962 12.34 25.1655 12.004 25.1655 11.612C25.1655 11.22 25.2962 10.8933 25.5575 10.632C25.8375 10.3707 26.1735 10.24 26.5655 10.24H33.2575C33.6495 10.24 33.9762 10.3707 34.2375 10.632C34.4989 10.8933 34.6295 11.22 34.6295 11.612C34.6295 12.004 34.4989 12.34 34.2375 12.62C33.9762 12.9 33.6495 13.04 33.2575 13.04H31.3255V26.2H33.2575C33.6682 26.2 33.9949 26.34 34.2375 26.62C34.4989 26.8813 34.6295 27.208 34.6295 27.6C34.6295 27.992 34.4989 28.328 34.2375 28.608C33.9762 28.8693 33.6495 29 33.2575 29H26.5655ZM39.0892 29.168C38.7345 29.168 38.4172 29.028 38.1372 28.748C37.8572 28.468 37.7172 28.1507 37.7172 27.796L37.7452 11.472C37.7452 11.0987 37.8665 10.7813 38.1092 10.52C38.3705 10.24 38.6972 10.1 39.0892 10.1C39.3132 10.1 39.5279 10.156 39.7332 10.268C39.9385 10.3613 40.1065 10.5013 40.2372 10.688L49.0012 23.372V11.472C49.0012 11.0987 49.1319 10.772 49.3932 10.492C49.6732 10.212 50.0092 10.072 50.4012 10.072C50.7745 10.072 51.0919 10.212 51.3532 10.492C51.6332 10.772 51.7732 11.0987 51.7732 11.472V27.796C51.7732 28.188 51.6425 28.5147 51.3812 28.776C51.1199 29.0373 50.7932 29.168 50.4012 29.168C50.1959 29.168 49.9812 29.112 49.7572 29C49.5519 28.888 49.3839 28.7387 49.2532 28.552L40.5172 15.924L40.4892 27.796C40.4892 28.188 40.3492 28.5147 40.0692 28.776C39.8079 29.0373 39.4812 29.168 39.0892 29.168ZM67.7148 29.196C67.0428 29.196 66.6041 28.8787 66.3988 28.244L64.3828 22.42L58.6708 23.68L56.8508 28.272C56.7388 28.5333 56.5708 28.748 56.3468 28.916C56.1415 29.084 55.8801 29.168 55.5628 29.168C55.1895 29.168 54.8628 29.0373 54.5828 28.776C54.3028 28.5147 54.1628 28.2067 54.1628 27.852C54.1628 27.6093 54.2281 27.3293 54.3588 27.012L55.4788 24.212C55.3668 24.1747 55.2828 24.1373 55.2268 24.1C54.7415 23.8573 54.4988 23.4467 54.4988 22.868C54.4988 22.532 54.5921 22.2427 54.7788 22C54.9841 21.7573 55.2455 21.5987 55.5628 21.524L56.5988 21.3L60.7428 10.772C60.8548 10.492 61.0321 10.2773 61.2748 10.128C61.5175 9.97867 61.7788 9.904 62.0588 9.904C62.3575 9.904 62.6188 9.97867 62.8428 10.128C63.0668 10.2773 63.2348 10.5107 63.3468 10.828L68.9188 26.984C68.9375 27.0213 68.9748 27.1333 69.0308 27.32C69.0868 27.488 69.1148 27.6653 69.1148 27.852C69.1148 28.2067 68.9841 28.524 68.7228 28.804C68.4615 29.0653 68.1255 29.196 67.7148 29.196ZM63.4588 19.816L61.9468 15.308L59.8468 20.6L63.4588 19.816ZM72.804 29.14C72.4494 29.1587 72.132 29.028 71.852 28.748C71.572 28.468 71.432 28.1507 71.432 27.796V11.472C71.432 11.0987 71.5627 10.7813 71.824 10.52C72.104 10.24 72.44 10.1 72.832 10.1C73.2054 10.1 73.5227 10.24 73.784 10.52C74.064 10.7813 74.204 11.0987 74.204 11.472V26.312L81.82 25.808C82.212 25.7893 82.5387 25.9107 82.8 26.172C83.0614 26.4147 83.192 26.7413 83.192 27.152C83.192 27.488 83.0614 27.8053 82.8 28.104C82.5574 28.384 82.268 28.5333 81.932 28.552L72.804 29.14ZM91.0235 31.912C90.5942 31.912 90.2115 31.7253 89.8755 31.352C86.8702 27.6933 85.3675 23.7733 85.3675 19.592C85.3675 17.3893 85.8155 15.2987 86.7115 13.32C87.6075 11.3227 88.8208 9.60533 90.3515 8.168C90.7062 7.832 91.0422 7.664 91.3595 7.664C91.7142 7.664 92.0222 7.804 92.2835 8.084C92.5635 8.34533 92.7035 8.66267 92.7035 9.036C92.7035 9.46533 92.5355 9.81067 92.1995 10.072C91.0048 11.024 90.0155 12.3867 89.2315 14.16C88.4475 15.9333 88.0555 17.744 88.0555 19.592C88.0555 21.552 88.4382 23.4373 89.2035 25.248C89.9875 27.0587 90.9022 28.5053 91.9475 29.588C92.2275 29.868 92.3675 30.204 92.3675 30.596C92.3675 30.9507 92.2275 31.2587 91.9475 31.52C91.6675 31.7813 91.3595 31.912 91.0235 31.912ZM100.807 29.168C100.509 29.168 100.238 29.0933 99.9953 28.944C99.7526 28.776 99.5846 28.5427 99.4913 28.244L94.0313 12.088C93.9566 11.864 93.9193 11.6493 93.9193 11.444C93.9193 11.052 94.05 10.7347 94.3113 10.492C94.5726 10.2493 94.918 10.128 95.3473 10.128C95.646 10.128 95.9073 10.212 96.1313 10.38C96.3553 10.5293 96.5233 10.7627 96.6353 11.08L100.919 23.764L105.959 10.996C106.09 10.716 106.267 10.5013 106.491 10.352C106.715 10.2027 106.967 10.128 107.247 10.128C107.639 10.128 107.966 10.268 108.227 10.548C108.489 10.8093 108.619 11.1173 108.619 11.472C108.619 11.6587 108.582 11.836 108.507 12.004L102.095 28.3C101.871 28.8787 101.442 29.168 100.807 29.168ZM116.21 29.168C114.38 29.168 112.915 28.5613 111.814 27.348C110.712 26.116 110.162 24.3893 110.162 22.168C110.162 19.48 110.796 17.1373 112.066 15.14C113.354 13.1427 115.099 11.6587 117.302 10.688C117.6 10.5573 117.852 10.492 118.058 10.492C118.431 10.492 118.739 10.6133 118.982 10.856C119.224 11.0987 119.346 11.4067 119.346 11.78C119.346 12.06 119.271 12.312 119.122 12.536C118.991 12.7413 118.814 12.8907 118.59 12.984C117.638 13.3947 116.779 13.9453 116.014 14.636C115.248 15.308 114.614 16.0733 114.11 16.932C114.894 16.652 115.724 16.512 116.602 16.512C117.628 16.512 118.552 16.736 119.374 17.184C120.214 17.632 120.876 18.2947 121.362 19.172C121.847 20.0307 122.09 21.0667 122.09 22.28C122.09 23.7173 121.819 24.9587 121.278 26.004C120.736 27.0307 120.018 27.8147 119.122 28.356C118.226 28.8973 117.255 29.168 116.21 29.168ZM116.238 26.536C117.19 26.536 117.964 26.144 118.562 25.36C119.178 24.576 119.486 23.5493 119.486 22.28C119.486 21.2347 119.215 20.4507 118.674 19.928C118.151 19.4053 117.46 19.144 116.602 19.144C115.183 19.144 113.923 19.6387 112.822 20.628C112.784 20.9827 112.766 21.496 112.766 22.168C112.766 23.6427 113.064 24.744 113.662 25.472C114.278 26.1813 115.136 26.536 116.238 26.536ZM128.794 29.168C128.421 29.168 128.103 29.0467 127.842 28.804C127.599 28.5613 127.478 28.2533 127.478 27.88C127.478 27.6 127.543 27.3573 127.674 27.152C127.823 26.928 128.01 26.7693 128.234 26.676C129.186 26.228 130.045 25.668 130.81 24.996C131.575 24.3053 132.21 23.5493 132.714 22.728C131.93 23.008 131.099 23.148 130.222 23.148C129.195 23.148 128.262 22.924 127.422 22.476C126.601 22.028 125.947 21.3747 125.462 20.516C124.977 19.6387 124.734 18.584 124.734 17.352C124.734 15.9707 124.986 14.7667 125.49 13.74C126.013 12.6947 126.722 11.892 127.618 11.332C128.514 10.772 129.531 10.492 130.67 10.492C132.537 10.492 134.002 11.108 135.066 12.34C136.13 13.572 136.662 15.2893 136.662 17.492C136.662 20.1987 135.999 22.5227 134.674 24.464C133.367 26.3867 131.65 27.8893 129.522 28.972C129.223 29.1027 128.981 29.168 128.794 29.168ZM130.222 20.516C131.062 20.516 131.799 20.3667 132.434 20.068C133.087 19.7507 133.601 19.4053 133.974 19.032C134.03 18.6773 134.058 18.164 134.058 17.492C134.058 16.0547 133.759 14.972 133.162 14.244C132.565 13.4973 131.697 13.124 130.558 13.124C129.662 13.124 128.897 13.4973 128.262 14.244C127.646 14.9907 127.338 16.0267 127.338 17.352C127.338 18.3787 127.599 19.1627 128.122 19.704C128.645 20.2453 129.345 20.516 130.222 20.516ZM140.734 31.912C140.398 31.912 140.09 31.7813 139.81 31.52C139.53 31.2587 139.39 30.9507 139.39 30.596C139.39 30.204 139.53 29.868 139.81 29.588C140.856 28.5053 141.761 27.0587 142.526 25.248C143.31 23.4373 143.702 21.552 143.702 19.592C143.702 17.744 143.31 15.9333 142.526 14.16C141.742 12.3867 140.753 11.024 139.558 10.072C139.222 9.81067 139.054 9.46533 139.054 9.036C139.054 8.66267 139.185 8.34533 139.446 8.084C139.726 7.804 140.044 7.664 140.398 7.664C140.716 7.664 141.052 7.832 141.406 8.168C142.937 9.60533 144.15 11.3227 145.046 13.32C145.942 15.2987 146.39 17.3893 146.39 19.592C146.39 23.7733 144.888 27.6933 141.882 31.352C141.546 31.7253 141.164 31.912 140.734 31.912Z" fill="white"/>
<path fill-rule="evenodd" clip-rule="evenodd" d="M157 55V331.73H132V116.461L53.4509 197.039L35.5493 179.588L157 55Z" fill="#3763FF"/>
</svg>
