<svg width="350" height="326" fill="none" xmlns="http://www.w3.org/2000/svg"><path d="M307.294 44.706a2.5 2.5 0 0 0-2.5-2.5h-22.5a2.5 2.5 0 1 0 0 5h20v20a2.5 2.5 0 1 0 5 0v-22.5zM28.018 325.018 306.562 46.474l-3.536-3.536L24.482 321.482l3.536 3.536z" fill="#17E3FF"/><path d="M27.762 307.303c-1.081 1.082-2.333 1.782-3.754 2.1-1.421.276-2.928.127-4.519-.445-1.57-.594-3.107-1.644-4.614-3.151-1.824-1.824-3.097-3.669-3.818-5.536-.721-1.867-.902-3.638-.54-5.314.339-1.697 1.177-3.214 2.513-4.55 1.06-1.061 2.44-1.952 4.136-2.673l-4.773-5.091a2.253 2.253 0 0 1-.604-1.559c0-.637.212-1.167.636-1.591.403-.404.912-.594 1.528-.573.615-.021 1.145.212 1.59.7l18.074 18.964c.403.446.594.955.573 1.528-.021.573-.244 1.071-.668 1.495-.403.403-.87.637-1.4.7-.51.043-.955-.127-1.337-.509l-.572-.573a11.274 11.274 0 0 1-.637 3.246 7.812 7.812 0 0 1-1.814 2.832zm-2.609-3.118a6.441 6.441 0 0 0 1.56-2.45c.318-.955.434-1.835.35-2.641-.085-.807-.308-1.411-.669-1.814l-6.141-6.396c-.636.127-1.347.392-2.132.796-.806.381-1.485.848-2.036 1.4-1.294 1.294-1.782 2.757-1.464 4.391.297 1.612 1.368 3.341 3.214 5.186 1.527 1.528 2.906 2.397 4.136 2.61 1.23.169 2.291-.191 3.182-1.082zm25.089-18.661c-.424.424-.891.657-1.4.7-.488.021-.923-.159-1.305-.541l-.445-.446c.063 1.803-.68 3.479-2.228 5.028-1.166 1.166-2.503 1.93-4.009 2.291-1.506.36-3.044.286-4.614-.223-1.59-.53-3.054-1.464-4.39-2.8a14.342 14.342 0 0 1-3.342-5.25c-.764-2.037-1.008-4.063-.732-6.078.297-2.036 1.199-3.808 2.705-5.314.976-.976 1.994-1.718 3.054-2.227a34.047 34.047 0 0 1 3.405-1.496l13.237 13.237c.425.425.647.944.669 1.559.02.616-.18 1.135-.605 1.56zm-8.114 1.559a6.143 6.143 0 0 0 1.4-2.164c.34-.848.52-1.644.54-2.386l-8.209-8.401a7.351 7.351 0 0 0-2.386 1.623 5.246 5.246 0 0 0-1.56 3.277c-.148 1.252.054 2.535.605 3.851.53 1.294 1.316 2.46 2.355 3.5 1.294 1.294 2.567 1.994 3.818 2.1 1.252.106 2.397-.361 3.437-1.4zm16.572-10.59c-.403.403-.912.615-1.527.636-.594 0-1.093-.201-1.496-.604l-11.36-11.36-2.513 2.514a2.084 2.084 0 0 1-1.528.636c-.615-.021-1.124-.233-1.527-.636-.467-.467-.679-.997-.636-1.591a2.233 2.233 0 0 1 .668-1.559l2.45-2.451-3.405-3.404c-.403-.403-.615-.913-.636-1.528-.021-.615.18-1.135.604-1.559.446-.445.966-.647 1.56-.604.594 0 1.103.212 1.527.636l3.405 3.405 2.704-2.705a2.084 2.084 0 0 1 1.528-.636c.594 0 1.113.222 1.559.668.403.403.615.912.636 1.527 0 .594-.212 1.103-.636 1.528l-2.705 2.704 11.36 11.36c.403.403.604.901.604 1.495 0 .594-.212 1.103-.636 1.528zm12.223-12.287c-1.23 1.231-2.567 2.037-4.01 2.419-1.442.339-2.757.403-3.945.191-1.188-.255-2.005-.605-2.45-1.05-.425-.425-.626-.923-.605-1.496 0-.594.202-1.093.605-1.496.36-.36.753-.562 1.177-.604.446-.064.88.01 1.305.223.89.424 1.792.562 2.704.413.913-.148 1.761-.615 2.546-1.4.827-.827 1.273-1.676 1.336-2.545.064-.87-.159-1.56-.668-2.069-.488-.488-1.071-.668-1.75-.541-.679.085-1.792.541-3.341 1.369-2.27 1.209-4.147 1.835-5.632 1.877-1.506.021-2.853-.562-4.041-1.75-1.252-1.252-1.772-2.768-1.56-4.55.191-1.803 1.178-3.596 2.96-5.378 1.654-1.655 3.298-2.577 4.932-2.768 1.655-.212 3.086.286 4.296 1.495.657.658 1.028 1.305 1.113 1.941.064.616-.159 1.178-.668 1.687-.445.445-.944.668-1.496.668-.551 0-.986-.159-1.304-.477a2.021 2.021 0 0 1-.318-.446c-.106-.233-.202-.392-.287-.477-.382-.382-.88-.499-1.495-.35-.594.127-1.273.573-2.037 1.336-.954.955-1.527 1.803-1.718 2.546-.17.721-.021 1.315.446 1.782.487.488 1.124.657 1.909.509.763-.17 1.94-.668 3.532-1.496 2.312-1.209 4.136-1.824 5.473-1.845 1.357-.043 2.63.53 3.818 1.718.806.806 1.347 1.835 1.623 3.087.276 1.209.212 2.482-.191 3.818-.382 1.315-1.135 2.535-2.26 3.659zm21.804-21.804c-.403.403-.912.615-1.527.636-.594 0-1.093-.201-1.496-.604L76.85 229.578c-.403-.403-.604-.901-.604-1.495 0-.637.201-1.156.604-1.559.424-.425.944-.626 1.56-.605.593 0 1.092.202 1.495.605l2.227 2.227c-1.188-3.818-.69-6.82 1.496-9.005.87-.87 1.877-1.368 3.023-1.495 1.166-.149 2.397.148 3.69.891-.678-3.395-.042-6.067 1.91-8.019 1.315-1.315 2.864-1.846 4.646-1.591 1.76.233 3.648 1.358 5.664 3.373l8.336 8.337c.403.403.594.912.573 1.527 0 .594-.201 1.092-.604 1.496a2.086 2.086 0 0 1-1.528.636c-.594 0-1.092-.202-1.495-.605l-8.528-8.527c-.976-.976-1.845-1.57-2.61-1.782-.763-.212-1.442-.021-2.036.572-.615.616-.986 1.475-1.113 2.578-.128 1.103.031 2.28.477 3.532.467 1.23 1.21 2.355 2.227 3.373l5.919 5.918c.424.425.636.934.636 1.528-.021.572-.244 1.071-.668 1.495-.403.403-.912.615-1.527.637-.594 0-1.093-.202-1.496-.605l-8.528-8.528c-1.018-1.018-1.888-1.633-2.609-1.845-.7-.234-1.326-.075-1.877.477-.679.679-1.071 1.623-1.177 2.832a11.314 11.314 0 0 0 .222 3.659 11.927 11.927 0 0 0 1.05 2.769c.467.806 1.082 1.591 1.846 2.354l4.71 4.646c.402.403.604.901.604 1.495 0 .594-.212 1.104-.637 1.528zm8.302-42.731c-.403.403-.923.605-1.56.605-.614-.022-1.113-.244-1.495-.669l-1.145-1.209a2.203 2.203 0 0 1-.573-1.527c0-.594.202-1.093.605-1.496.403-.403.912-.594 1.527-.572.636 0 1.135.201 1.496.604l1.177 1.241c.403.446.604.965.604 1.559 0 .552-.212 1.04-.636 1.464zm17.055 17.374a2.233 2.233 0 0 1-1.559.668 2.235 2.235 0 0 1-1.559-.668l-12.505-12.824a2.082 2.082 0 0 1-.636-1.527c0-.636.212-1.167.636-1.591a2.06 2.06 0 0 1 1.591-.636c.594 0 1.103.212 1.527.636l12.505 12.823c.425.425.637.955.637 1.591 0 .594-.212 1.103-.637 1.528zm7.706-7.706c-.403.403-.912.615-1.527.636-.594 0-1.082-.19-1.464-.572l-12.919-12.919a2.012 2.012 0 0 1-.604-1.559 2.237 2.237 0 0 1 .668-1.56 1.888 1.888 0 0 1 1.464-.572c.594 0 1.103.212 1.527.636l2.418 2.418c-.679-1.866-.891-3.585-.636-5.154.233-1.591.891-2.928 1.973-4.01 1.188-1.188 2.407-1.856 3.659-2.004 1.251-.149 2.673.254 4.264 1.209 1.57.933 3.468 2.514 5.696 4.741l5.536 5.6c.403.403.626.902.668 1.496.022.573-.18 1.071-.604 1.495-.403.403-.912.616-1.528.637-.615-.021-1.113-.223-1.495-.605l-5.282-5.282c-1.655-1.655-3.002-2.853-4.041-3.596-1.04-.742-1.867-1.124-2.482-1.145-.637-.043-1.209.191-1.718.7-.637.636-.998 1.549-1.082 2.736-.106 1.167.063 2.525.509 4.073.382 1.358.891 2.546 1.527 3.564.636 1.018 1.538 2.111 2.705 3.278l2.673 2.673c.466.466.71.986.731 1.559.043.551-.169 1.06-.636 1.527zm22.623-22.623c-1.506 1.506-3.182 2.546-5.028 3.118a10.131 10.131 0 0 1-5.568.032c-1.888-.53-3.649-1.612-5.282-3.245a12.105 12.105 0 0 1-2.928-4.71c-.615-1.845-.753-3.68-.413-5.504.36-1.846 1.241-3.469 2.641-4.869 1.294-1.294 2.662-2.132 4.105-2.514 1.442-.424 2.757-.509 3.945-.254 1.188.254 2.069.668 2.641 1.241a2 2 0 0 1 .541 1.05c.085.424.064.891-.063 1.4l-3.628 13.428c.955.36 1.984.35 3.087-.032 1.124-.403 2.153-1.071 3.086-2.005 1.231-1.23 1.825-2.736 1.782-4.518 0-.679.18-1.199.541-1.559.424-.424.912-.637 1.464-.637.573-.021 1.06.17 1.463.573.34.34.531.785.573 1.337.064 1.251-.169 2.609-.7 4.073-.53 1.421-1.283 2.619-2.259 3.595zm-9.419-13.937a3.283 3.283 0 0 0-2.068.096c-.7.233-1.368.668-2.005 1.304-1.209 1.209-1.813 2.641-1.813 4.296.021 1.633.572 3.118 1.654 4.455.276.36.637.763 1.082 1.209l3.15-11.36z" fill="#D9731B"/></svg>