<svg width="351" height="102" fill="none" xmlns="http://www.w3.org/2000/svg"><path d="M7.918 92.222c-1.43 0-2.676-.308-3.737-.925-1.036-.641-1.838-1.369-2.405-2.183-.543-.839-.814-1.517-.814-2.035 0-.493.173-.9.518-1.221a1.67 1.67 0 0 1 1.221-.518c.42 0 .765.111 1.036.333.296.222.506.518.629.888.271.765.715 1.369 1.332 1.813.617.444 1.381.666 2.294.666.962 0 1.714-.234 2.257-.703.543-.469.814-.999.814-1.591 0-.567-.234-1.011-.703-1.332-.444-.345-1.357-.728-2.738-1.147-2.023-.617-3.478-1.344-4.366-2.183-.888-.863-1.332-1.986-1.332-3.367 0-1.455.58-2.64 1.739-3.552 1.16-.937 2.775-1.406 4.847-1.406 1.924 0 3.416.42 4.477 1.258 1.085.839 1.628 1.961 1.628 3.367 0 .765-.16 1.357-.481 1.776-.32.395-.777.592-1.369.592-.518 0-.937-.16-1.258-.481-.32-.32-.481-.666-.481-1.036 0-.123.025-.271.074-.444.074-.197.111-.345.111-.444 0-.444-.222-.802-.666-1.073-.42-.271-1.073-.407-1.961-.407-1.11 0-1.936.16-2.479.481-.518.32-.777.752-.777 1.295 0 .567.271 1.036.814 1.406.543.345 1.517.74 2.923 1.184 2.047.641 3.466 1.344 4.255 2.109.814.765 1.221 1.838 1.221 3.219 0 .937-.284 1.85-.851 2.738-.543.863-1.32 1.566-2.331 2.109-.987.543-2.134.814-3.441.814zm12.166.037c-.469 0-.888-.173-1.258-.518-.346-.37-.518-.79-.518-1.258V69.171c0-.493.172-.913.518-1.258.37-.37.814-.555 1.332-.555.493 0 .9.185 1.22.555.321.345.482.765.482 1.258v7.955c.814-1.036 1.739-1.862 2.775-2.479 1.036-.641 2.072-.962 3.108-.962 1.948 0 3.317.987 4.107 2.96.79 1.949 1.184 5.044 1.184 9.287 0 2.393-.037 3.934-.111 4.625a1.68 1.68 0 0 1-.555 1.184 1.61 1.61 0 0 1-1.184.481c-.518 0-.938-.16-1.258-.481a1.782 1.782 0 0 1-.481-1.258c0-.493.012-.9.037-1.221l.037-3.071c0-3.577-.198-5.97-.592-7.178-.37-1.209-.839-1.813-1.406-1.813-.716 0-1.443.333-2.183.999a10.81 10.81 0 0 0-1.924 2.183c-.518.79-.888 1.418-1.11 1.887-.296.666-.444 1.542-.444 2.627v5.513c0 .567-.173 1.024-.518 1.369-.346.32-.765.481-1.258.481zm24.21-.037a7.018 7.018 0 0 1-3.885-1.147c-1.16-.765-2.072-1.8-2.738-3.108-.666-1.332-1-2.775-1-4.329 0-1.751.395-3.38 1.185-4.884.789-1.53 1.85-2.738 3.182-3.626 1.332-.913 2.762-1.369 4.292-1.369 1.406 0 2.688.395 3.848 1.184 1.184.79 2.109 1.838 2.775 3.145a8.894 8.894 0 0 1 1.036 4.218c0 1.776-.395 3.429-1.184 4.958-.79 1.505-1.863 2.713-3.22 3.626-1.331.888-2.762 1.332-4.291 1.332zm0-3.33c.863 0 1.69-.296 2.479-.888.789-.592 1.418-1.381 1.887-2.368a7.238 7.238 0 0 0 .703-3.145c0-.937-.185-1.813-.555-2.627-.37-.839-.876-1.505-1.517-1.998-.642-.518-1.345-.777-2.11-.777-.863 0-1.677.308-2.441.925-.74.592-1.332 1.394-1.776 2.405a7.664 7.664 0 0 0-.666 3.182c0 1.11.185 2.06.555 2.849.394.79.888 1.394 1.48 1.813.616.42 1.27.629 1.96.629zm17.745 3.441c-1.332 0-2.393-.284-3.182-.851-.79-.592-1.382-1.653-1.776-3.182-.395-1.53-.592-3.725-.592-6.586 0-.962.037-2.023.11-3.182.075-1.16.174-2.134.297-2.923.099-.617.283-1.085.555-1.406.271-.32.666-.481 1.184-.481.493 0 .913.148 1.258.444.345.296.518.728.518 1.295l-.074 1.036a51.658 51.658 0 0 0-.37 6.031c0 2.516.21 4.23.629 5.143.444.888 1.048 1.332 1.813 1.332.888 0 1.8-.234 2.738-.703.937-.493 1.603-.962 1.998-1.406.148-.148.222-.456.222-.925l.074-10.545c0-.493.173-.9.518-1.221.37-.32.777-.481 1.22-.481.47 0 .877.16 1.222.481.37.32.555.728.555 1.221v15.022c0 .469-.185.888-.555 1.258a1.67 1.67 0 0 1-1.221.518c-.493 0-.937-.148-1.332-.444-.37-.32-.555-.715-.555-1.184v-.407c-.937.666-1.813 1.196-2.627 1.591-.79.37-1.665.555-2.627.555zm15.857-.111c-.468 0-.888-.16-1.258-.481-.345-.345-.518-.74-.518-1.184v-21.46c0-.493.16-.9.481-1.221.346-.345.777-.518 1.295-.518.469 0 .876.173 1.221.518.37.345.555.752.555 1.221v21.46c0 .444-.185.839-.555 1.184-.37.32-.777.481-1.22.481zm12.407-.037c-1.258 0-2.392-.32-3.404-.962-.986-.666-1.776-1.628-2.368-2.886-.567-1.258-.85-2.763-.85-4.514 0-2.121.332-3.934.998-5.439.666-1.505 1.591-2.64 2.775-3.404 1.184-.79 2.553-1.184 4.107-1.184 1.234 0 2.553.284 3.96.851l.184-5.735c.025-.493.21-.913.555-1.258.37-.37.802-.555 1.295-.555.47 0 .876.185 1.221.555.37.345.543.79.518 1.332l-.518 21.534c-.024.493-.21.9-.555 1.221-.345.32-.764.481-1.258.481-.468 0-.875-.136-1.22-.407-.321-.271-.482-.629-.482-1.073v-.666a9.271 9.271 0 0 1-2.257 1.517 6.425 6.425 0 0 1-2.7.592zm.296-3.33a5.29 5.29 0 0 0 2.331-.518c.74-.37 1.32-.814 1.74-1.332.419-.518.64-.999.665-1.443l.148-7.289c-.444-.296-1.01-.555-1.702-.777a5.93 5.93 0 0 0-1.998-.37c-1.504 0-2.639.567-3.404 1.702-.764 1.11-1.147 2.738-1.147 4.884 0 1.776.296 3.083.888 3.922.617.814 1.443 1.221 2.48 1.221zm15.372 3.367c-.468 0-.888-.173-1.258-.518-.345-.345-.518-.74-.518-1.184V75.498c0-.493.185-.913.555-1.258.37-.345.802-.518 1.295-.518.469 0 .864.173 1.184.518.346.345.518.765.518 1.258v2.812c.691-1.48 1.567-2.602 2.627-3.367 1.061-.79 2.22-1.184 3.478-1.184 1.382 0 2.479.32 3.293.962.814.641 1.406 1.702 1.776 3.182.37 1.455.555 3.478.555 6.068l-.037 6.475c0 .469-.16.888-.481 1.258-.32.345-.727.518-1.221.518-.468 0-.888-.173-1.258-.518-.345-.37-.518-.777-.518-1.221v-6.142c0-1.924-.086-3.404-.259-4.44-.172-1.036-.431-1.739-.777-2.109-.345-.395-.814-.592-1.406-.592-.74 0-1.48.32-2.22.962-.74.617-1.43 1.505-2.072 2.664-.567 1.011-.962 1.998-1.184 2.96-.222.962-.333 2.121-.333 3.478v3.108c0 .543-.16.987-.481 1.332-.296.345-.715.518-1.258.518zm19.72-16.798c-.493 0-.912-.173-1.258-.518a1.714 1.714 0 0 1-.518-1.258v-4.514c0-.493.173-.913.518-1.258a1.714 1.714 0 0 1 1.258-.518c.469 0 .876.185 1.221.555.37.345.555.752.555 1.221v4.514c0 .493-.185.913-.555 1.258a1.67 1.67 0 0 1-1.221.518zm9.437 16.835c-.468 0-.888-.173-1.258-.518a1.671 1.671 0 0 1-.518-1.221V77.311h-2.923c-.493 0-.912-.173-1.258-.518-.345-.37-.518-.79-.518-1.258 0-.543.185-.974.555-1.295.37-.345.802-.518 1.295-.518h2.849v-3.959c0-.469.173-.888.518-1.258.346-.37.765-.555 1.258-.555.518 0 .938.185 1.258.555.346.345.518.765.518 1.258v3.959h3.145c.494 0 .913.173 1.258.518.346.345.518.777.518 1.295 0 .469-.172.888-.518 1.258a1.711 1.711 0 0 1-1.258.518h-3.145V90.52c0 .469-.172.876-.518 1.221a1.711 1.711 0 0 1-1.258.518zm23.812-.074c-.493 0-.9-.16-1.221-.481a1.612 1.612 0 0 1-.481-1.184V69.023c0-.493.173-.888.518-1.184.346-.32.765-.481 1.258-.481.469 0 .876.16 1.221.481.346.296.518.69.518 1.184v7.252c.716-.79 1.505-1.357 2.368-1.702.864-.345 1.813-.518 2.849-.518 1.234 0 2.356.32 3.367.962 1.012.617 1.813 1.542 2.405 2.775.617 1.233.925 2.726.925 4.477 0 3.157-.727 5.575-2.183 7.252-1.455 1.653-3.441 2.479-5.957 2.479-.69 0-1.43-.111-2.22-.333-.764-.247-1.356-.518-1.776-.814v.222c0 .247-.16.493-.481.74-.296.247-.666.37-1.11.37zm5.328-3.663c1.727 0 2.973-.543 3.737-1.628.79-1.085 1.184-2.627 1.184-4.625 0-1.53-.296-2.689-.888-3.478-.592-.79-1.393-1.184-2.405-1.184-.937 0-1.8.173-2.59.518-.789.345-1.418.814-1.887 1.406a3.194 3.194 0 0 0-.666 1.961v6.401c1.258.42 2.43.629 3.515.629zm17.479 3.811c-1.332 0-2.393-.284-3.182-.851-.789-.592-1.381-1.653-1.776-3.182-.395-1.53-.592-3.725-.592-6.586 0-.962.037-2.023.111-3.182.074-1.16.173-2.134.296-2.923.099-.617.284-1.085.555-1.406.271-.32.666-.481 1.184-.481.493 0 .913.148 1.258.444.345.296.518.728.518 1.295l-.074 1.036a51.592 51.592 0 0 0-.37 6.031c0 2.516.21 4.23.629 5.143.444.888 1.048 1.332 1.813 1.332.888 0 1.801-.234 2.738-.703.937-.493 1.603-.962 1.998-1.406.148-.148.222-.456.222-.925l.074-10.545c0-.493.173-.9.518-1.221.37-.32.777-.481 1.221-.481.469 0 .876.16 1.221.481.37.32.555.728.555 1.221v15.022c0 .469-.185.888-.555 1.258a1.67 1.67 0 0 1-1.221.518c-.493 0-.937-.148-1.332-.444-.37-.32-.555-.715-.555-1.184v-.407c-.937.666-1.813 1.196-2.627 1.591-.789.37-1.665.555-2.627.555zm16.634 6.512c-.444 0-.826-.185-1.147-.555a1.785 1.785 0 0 1-.481-1.258c0-.222.062-.481.185-.777l3.219-6.919-6.623-12.913a1.97 1.97 0 0 1-.222-.888c0-.493.173-.913.518-1.258.37-.37.814-.555 1.332-.555.395 0 .74.111 1.036.333.296.222.518.481.666.777l5.217 10.323 4.662-10.323c.148-.32.37-.592.666-.814a1.786 1.786 0 0 1 1.036-.333c.444 0 .827.173 1.147.518.321.345.481.777.481 1.295 0 .296-.049.543-.148.74l-9.879 21.46a1.81 1.81 0 0 1-.666.814 1.623 1.623 0 0 1-.999.333zm30.801-6.586c-.469 0-.888-.173-1.258-.518a1.671 1.671 0 0 1-.518-1.221V77.311h-2.923c-.493 0-.913-.173-1.258-.518-.345-.37-.518-.79-.518-1.258 0-.543.185-.974.555-1.295.37-.345.802-.518 1.295-.518h2.849v-3.959c0-.469.173-.888.518-1.258.345-.37.765-.555 1.258-.555.518 0 .937.185 1.258.555.345.345.518.765.518 1.258v3.959h3.145c.493 0 .913.173 1.258.518.345.345.518.777.518 1.295 0 .469-.173.888-.518 1.258a1.713 1.713 0 0 1-1.258.518h-3.145V90.52c0 .469-.173.876-.518 1.221a1.713 1.713 0 0 1-1.258.518zm10.698 0c-.469 0-.888-.173-1.258-.518-.346-.37-.518-.79-.518-1.258V69.171c0-.493.172-.913.518-1.258.37-.37.814-.555 1.332-.555.493 0 .9.185 1.221.555.32.345.481.765.481 1.258v7.955c.814-1.036 1.739-1.862 2.775-2.479 1.036-.641 2.072-.962 3.108-.962 1.948 0 3.317.987 4.107 2.96.789 1.949 1.184 5.044 1.184 9.287 0 2.393-.037 3.934-.111 4.625-.025.469-.21.863-.555 1.184a1.61 1.61 0 0 1-1.184.481c-.518 0-.938-.16-1.258-.481a1.78 1.78 0 0 1-.481-1.258c0-.493.012-.9.037-1.221l.037-3.071c0-3.577-.198-5.97-.592-7.178-.37-1.209-.839-1.813-1.406-1.813-.716 0-1.443.333-2.183.999a10.792 10.792 0 0 0-1.924 2.183c-.518.79-.888 1.418-1.11 1.887-.296.666-.444 1.542-.444 2.627v5.513c0 .567-.173 1.024-.518 1.369-.346.32-.765.481-1.258.481zm19.77-20.054c-.469 0-.888-.185-1.258-.555-.346-.37-.506-.79-.481-1.258l.037-1.369c.024-.469.209-.876.555-1.221a1.67 1.67 0 0 1 1.221-.518c.468 0 .875.185 1.221.555.37.37.542.777.518 1.221l-.037 1.406c-.025.493-.21.913-.555 1.258-.321.32-.728.481-1.221.481zm-.185 20.017c-.494 0-.925-.173-1.295-.518a1.835 1.835 0 0 1-.518-1.295l.185-14.726c0-.493.172-.913.518-1.258.37-.37.801-.555 1.295-.555.518 0 .949.185 1.295.555.345.345.518.765.518 1.258l-.185 14.726c0 .493-.185.925-.555 1.295a1.714 1.714 0 0 1-1.258.518zm12.512 0c-1.431 0-2.677-.308-3.737-.925-1.036-.641-1.838-1.369-2.405-2.183-.543-.839-.814-1.517-.814-2.035 0-.493.172-.9.518-1.221a1.67 1.67 0 0 1 1.221-.518c.419 0 .764.111 1.036.333.296.222.505.518.629.888.271.765.715 1.369 1.332 1.813.616.444 1.381.666 2.294.666.962 0 1.714-.234 2.257-.703.542-.469.814-.999.814-1.591 0-.567-.235-1.011-.703-1.332-.444-.345-1.357-.728-2.738-1.147-2.023-.617-3.478-1.344-4.366-2.183-.888-.863-1.332-1.986-1.332-3.367 0-1.455.579-2.64 1.739-3.552 1.159-.937 2.775-1.406 4.847-1.406 1.924 0 3.416.42 4.477 1.258 1.085.839 1.628 1.961 1.628 3.367 0 .765-.161 1.357-.481 1.776-.321.395-.777.592-1.369.592-.518 0-.938-.16-1.258-.481-.321-.32-.481-.666-.481-1.036 0-.123.024-.271.074-.444.074-.197.111-.345.111-.444 0-.444-.222-.802-.666-1.073-.42-.271-1.073-.407-1.961-.407-1.11 0-1.937.16-2.479.481-.518.32-.777.752-.777 1.295 0 .567.271 1.036.814 1.406.542.345 1.517.74 2.923 1.184 2.047.641 3.465 1.344 4.255 2.109.814.765 1.221 1.838 1.221 3.219 0 .937-.284 1.85-.851 2.738-.543.863-1.32 1.566-2.331 2.109-.987.543-2.134.814-3.441.814zm30.016 0a7.018 7.018 0 0 1-3.885-1.147c-1.159-.765-2.072-1.8-2.738-3.108-.666-1.332-.999-2.775-.999-4.329 0-1.751.395-3.38 1.184-4.884.789-1.53 1.85-2.738 3.182-3.626 1.332-.913 2.763-1.369 4.292-1.369 1.406 0 2.689.395 3.848 1.184 1.184.79 2.109 1.838 2.775 3.145a8.89 8.89 0 0 1 1.036 4.218c0 1.776-.395 3.429-1.184 4.958-.789 1.505-1.862 2.713-3.219 3.626-1.332.888-2.763 1.332-4.292 1.332zm0-3.33c.863 0 1.69-.296 2.479-.888.789-.592 1.418-1.381 1.887-2.368a7.234 7.234 0 0 0 .703-3.145c0-.937-.185-1.813-.555-2.627-.37-.839-.876-1.505-1.517-1.998-.641-.518-1.344-.777-2.109-.777-.863 0-1.677.308-2.442.925-.74.592-1.332 1.394-1.776 2.405a7.664 7.664 0 0 0-.666 3.182c0 1.11.185 2.06.555 2.849.395.79.888 1.394 1.48 1.813.617.42 1.27.629 1.961.629zm14.452 3.33c-.469 0-.888-.173-1.258-.518-.345-.345-.518-.74-.518-1.184V75.498c0-.493.185-.913.555-1.258.37-.345.802-.518 1.295-.518.469 0 .863.173 1.184.518.345.345.518.765.518 1.258v2.812c.691-1.48 1.566-2.602 2.627-3.367 1.061-.79 2.22-1.184 3.478-1.184 1.381 0 2.479.32 3.293.962.814.641 1.406 1.702 1.776 3.182.37 1.455.555 3.478.555 6.068l-.037 6.475c0 .469-.16.888-.481 1.258-.321.345-.728.518-1.221.518-.469 0-.888-.173-1.258-.518-.345-.37-.518-.777-.518-1.221v-6.142c0-1.924-.086-3.404-.259-4.44-.173-1.036-.432-1.739-.777-2.109-.345-.395-.814-.592-1.406-.592-.74 0-1.48.32-2.22.962-.74.617-1.431 1.505-2.072 2.664-.567 1.011-.962 1.998-1.184 2.96-.222.962-.333 2.121-.333 3.478v3.108c0 .543-.16.987-.481 1.332-.296.345-.715.518-1.258.518zm26.306 0c-1.751 0-3.33-.37-4.736-1.11a8.336 8.336 0 0 1-3.256-3.219c-.789-1.406-1.184-3.059-1.184-4.958a9.94 9.94 0 0 1 1.036-4.44c.715-1.43 1.702-2.578 2.96-3.441 1.283-.863 2.738-1.295 4.366-1.295 1.505 0 2.787.308 3.848.925 1.085.592 1.899 1.307 2.442 2.146.543.839.814 1.591.814 2.257 0 .32-.099.629-.296.925-.197.296-.481.555-.851.777l-9.916 5.698c.345.765.95 1.357 1.813 1.776.888.42 1.875.629 2.96.629 1.431 0 2.652-.53 3.663-1.591.395-.395.802-.592 1.221-.592.493 0 .9.16 1.221.481.345.32.518.715.518 1.184 0 .395-.148.765-.444 1.11-.691.765-1.616 1.418-2.775 1.961-1.135.518-2.269.777-3.404.777zm2.627-13.579a2.702 2.702 0 0 0-1.258-1.147c-.543-.271-1.184-.407-1.924-.407-1.406 0-2.59.481-3.552 1.443-.937.962-1.48 2.146-1.628 3.552-.049.37-.074.814-.074 1.332l8.436-4.773z" fill="#FC2929"/><path d="M309.5 2A1.5 1.5 0 0 0 308 .5h-13.5a1.5 1.5 0 0 0 0 3h12v12a1.5 1.5 0 0 0 3 0V2zm-45.439 46.06 45-45-2.122-2.12-45 45 2.122 2.12z" fill="#000"/></svg>