<svg width="280" height="186" fill="none" xmlns="http://www.w3.org/2000/svg"><path d="M2.009 35.181A2.5 2.5 0 0 0 .24 38.243l5.823 21.734a2.5 2.5 0 0 0 4.83-1.294L5.718 39.364l19.318-5.176a2.5 2.5 0 0 0-1.294-4.83L2.009 35.181zm254.776 146.25-252.88-146-2.5 4.33 252.88 146 2.5-4.33z" fill="#FF17B0"/><path d="M32.481 46.16c-.494-.285-.823-.735-.987-1.35-.154-.574-.088-1.107.197-1.6l13.05-22.604c.315-.546.759-.895 1.333-1.05.573-.153 1.133-.072 1.679.243.441.255.746.656.915 1.204.195.563.135 1.117-.18 1.663l-.248.428c2.195-.742 4.579-.37 7.15 1.115 1.066.615 1.897 1.545 2.495 2.79.623 1.261.87 2.754.739 4.48-.116 1.7-.713 3.486-1.793 5.356a17.67 17.67 0 0 1-3.592 4.422c-1.42 1.259-3.087 2.046-5 2.36-1.874.305-3.889-.165-6.045-1.41-1.247-.72-2.279-1.784-3.095-3.19l-3.667 6.352c-.285.494-.728.81-1.327.949-.59.18-1.13.127-1.624-.158zm12.017-7.404c1.507.87 3.011.994 4.514.372 1.543-.633 2.967-2.08 4.272-4.34.96-1.663 1.385-3.15 1.276-4.46-.069-1.321-.57-2.252-1.506-2.792-1.325-.765-2.605-1.158-3.84-1.178-1.21-.005-2.249.174-3.117.539l-4.995 8.651c1.225 1.539 2.357 2.608 3.396 3.208zm12.327 12.262c-.493-.285-.83-.722-1.01-1.31-.18-.59-.134-1.118.136-1.585l9.112-15.784c.3-.52.737-.856 1.31-1.01.6-.138 1.16-.058 1.68.242s.856.737 1.01 1.31c.18.59.12 1.144-.18 1.663l-.675 1.17c2.473-1.344 4.813-1.378 7.022-.103 1.325.765 2.063 1.676 2.215 2.733.177 1.073-.027 2.116-.612 3.129l-.675 1.17c-.3.519-.737.855-1.31 1.01-.533.142-1.06.063-1.579-.237-.623-.36-.986-.812-1.088-1.355-.075-.529.037-1.053.337-1.573l.292-.507c.24-.415.074-.788-.497-1.118-.468-.27-1.148-.351-2.042-.243a9.214 9.214 0 0 0-2.336.625c-.936.36-1.69.826-2.261 1.397-.546.585-1.089 1.346-1.629 2.281l-4.314 7.382c-.27.468-.705.771-1.305.91-.6.138-1.133.073-1.6-.197zm20.057 11.58a8.536 8.536 0 0 1-3.395-3.571c-.756-1.51-1.087-3.157-.993-4.939.108-1.808.635-3.53 1.58-5.167 1.065-1.845 2.47-3.32 4.217-4.424 1.761-1.13 3.613-1.759 5.556-1.884 1.958-.152 3.743.238 5.354 1.168a8.135 8.135 0 0 1 3.333 3.587c.767 1.551 1.103 3.218 1.01 5a10.819 10.819 0 0 1-1.474 5.073c-1.08 1.87-2.5 3.37-4.262 4.502-1.746 1.105-3.612 1.725-5.596 1.861-1.943.126-3.72-.277-5.33-1.207zm2.025-3.508c.91.525 1.96.716 3.15.572 1.192-.143 2.335-.592 3.428-1.346a8.803 8.803 0 0 0 2.653-2.886 7.63 7.63 0 0 0 1.013-3.104c.12-1.108-.007-2.117-.382-3.027-.361-.935-.944-1.636-1.75-2.1-.909-.526-1.954-.696-3.134-.511-1.14.173-2.25.657-3.333 1.453a9.32 9.32 0 0 0-2.637 2.946c-.675 1.17-1.057 2.282-1.148 3.338-.064 1.072.088 2.008.457 2.81.394.817.955 1.435 1.683 1.855zm13.142 12.212c-.52-.3-.851-.716-.994-1.25a1.957 1.957 0 0 1 .213-1.539l13.073-22.642c.3-.52.722-.83 1.266-.932.558-.128 1.097-.042 1.617.258.494.285.825.702.994 1.25.183.521.125 1.042-.175 1.561l-4.41 7.639c1.234-.396 2.41-.514 3.529-.353 1.12.162 2.225.557 3.316 1.187 1.299.75 2.286 1.77 2.961 3.06.691 1.265.973 2.727.846 4.386-.1 1.674-.683 3.434-1.748 5.278-1.92 3.326-4.157 5.43-6.709 6.311-2.538.856-5.132.519-7.782-1.011-.728-.42-1.44-.987-2.136-1.701-.655-.725-1.114-1.37-1.376-1.938l-.135.234c-.15.26-.469.422-.956.487-.462.08-.927-.015-1.394-.285zm7.839-.618c1.819 1.05 3.461 1.236 4.926.558 1.491-.664 2.845-2.047 4.06-4.152.93-1.61 1.323-3.012 1.179-4.203-.143-1.191-.748-2.095-1.813-2.71-.987-.57-2.001-.913-3.043-1.03-1.041-.115-1.989-.004-2.842.334-.828.354-1.459.907-1.894 1.66l-3.893 6.743c1.07 1.207 2.177 2.14 3.32 2.8zm23.066 19.033c-.519-.3-.866-.69-1.038-1.171-.147-.466-.085-.933.185-1.4l.315-.546c-1.726.528-3.537.245-5.433-.85-1.429-.825-2.513-1.918-3.251-3.28-.738-1.361-1.064-2.866-.979-4.514.101-1.674.623-3.33 1.568-4.967a14.346 14.346 0 0 1 4.207-4.586c1.769-1.264 3.663-2.024 5.681-2.28 2.044-.24 3.988.173 5.833 1.238 1.195.69 2.176 1.481 2.942 2.374a34.139 34.139 0 0 1 2.326 2.901l-9.36 16.212c-.3.52-.744.87-1.333 1.05-.589.18-1.143.119-1.663-.181zm-3.606-7.434c.754.435 1.571.699 2.453.792.907.108 1.722.077 2.445-.095l5.989-10.104c-.573-.747-1.302-1.375-2.185-1.885a5.246 5.246 0 0 0-3.569-.658c-1.248.18-2.435.707-3.563 1.58-1.113.848-2.036 1.908-2.771 3.181-.915 1.585-1.262 2.995-1.041 4.232.222 1.236.969 2.222 2.242 2.957zm12.966 12.266c-.52-.3-.851-.716-.994-1.25a1.956 1.956 0 0 1 .214-1.539l13.072-22.642c.3-.52.722-.83 1.266-.932.558-.128 1.098-.042 1.617.258.494.285.825.702.994 1.25.183.521.125 1.042-.175 1.562l-4.41 7.638c1.234-.397 2.41-.514 3.529-.353 1.12.162 2.225.557 3.316 1.187 1.299.75 2.286 1.77 2.962 3.06.69 1.265.972 2.727.845 4.386-.1 1.674-.683 3.434-1.748 5.278-1.92 3.326-4.156 5.43-6.709 6.311-2.538.856-5.132.519-7.782-1.011-.728-.42-1.44-.987-2.136-1.701-.655-.725-1.114-1.37-1.376-1.937l-.135.233c-.15.26-.468.422-.956.487-.462.08-.927-.015-1.394-.285zm7.839-.618c1.819 1.05 3.461 1.236 4.926.558 1.492-.663 2.845-2.047 4.06-4.152.93-1.61 1.323-3.012 1.179-4.203-.143-1.191-.748-2.095-1.813-2.71-.987-.57-2.001-.913-3.043-1.029-1.041-.116-1.989-.005-2.842.333a3.882 3.882 0 0 0-1.894 1.66l-3.893 6.743c1.07 1.207 2.177 2.14 3.32 2.8zm12.691 12.523a2.273 2.273 0 0 1-1.032-1.271c-.154-.574-.096-1.095.174-1.562l13.05-22.604c.3-.52.716-.85 1.249-.993.574-.154 1.134-.073 1.679.242.494.285.818.714.971 1.288.18.588.127 1.13-.158 1.623l-13.05 22.604c-.27.467-.705.77-1.304.909-.585.113-1.111.034-1.579-.236zm6.001 12.766c-.468-.27-.758-.697-.871-1.282-.127-.559-.041-1.098.259-1.618.135-.233.357-.469.667-.705l7.598-5.331.877-17.628c.024-.402.126-.759.306-1.07.3-.52.737-.857 1.311-1.01a2.209 2.209 0 0 1 1.74.225c.416.24.712.567.889.98.177.415.253.822.229 1.224l-.783 14.046 11.188-8.038c.351-.248.75-.399 1.197-.453.472-.038.904.055 1.293.28.468.27.766.684.893 1.243.128.558.034 1.111-.281 1.656-.18.312-.381.542-.605.69l-23.456 16.595a2.198 2.198 0 0 1-1.196.453 1.974 1.974 0 0 1-1.255-.257zm35.651 11.282c-.494-.285-.83-.722-1.01-1.311-.154-.573-.096-1.094.174-1.562l8.145-14.107-1.792-1.035c-.468-.27-.779-.692-.933-1.266-.153-.574-.095-1.094.175-1.562.285-.494.714-.817 1.288-.971.574-.154 1.081-.103 1.523.152l1.871 1.08c1.529-2.408 3.189-3.754 4.98-4.036 1.832-.293 4.112.348 6.84 1.923.727.42 1.211.872 1.451 1.357.239.485.164 1.065-.226 1.74-.3.52-.724.864-1.271 1.033-.507.158-1.046.072-1.618-.258-1.169-.675-2.11-1.115-2.824-1.319-.673-.215-1.292-.192-1.859.07-.567.261-1.144.811-1.732 1.65l3.952 2.334c.416.24.701.647.855 1.22.179.589.134 1.117-.136 1.585-.27.468-.692.778-1.265.932-.548.169-1.056.118-1.524-.152l-4.014-2.317-8.145 14.107c-.27.468-.704.771-1.304.91-.574.153-1.108.088-1.601-.197zm21.433 12.894c-.519-.3-.865-.69-1.038-1.171-.147-.466-.085-.933.185-1.4l.315-.546c-1.726.528-3.536.245-5.433-.85-1.429-.825-2.513-1.918-3.251-3.28-.738-1.361-1.064-2.866-.979-4.514.101-1.674.624-3.33 1.569-4.966a14.33 14.33 0 0 1 4.206-4.586c1.77-1.265 3.663-2.025 5.681-2.28 2.044-.241 3.988.172 5.833 1.237 1.195.69 2.176 1.481 2.942 2.374a34.129 34.129 0 0 1 2.326 2.902l-9.36 16.212c-.3.519-.744.869-1.333 1.049-.589.179-1.143.119-1.663-.181zm-3.606-7.434a6.14 6.14 0 0 0 2.453.792c.907.109 1.722.077 2.445-.095l5.989-10.104a7.35 7.35 0 0 0-2.185-1.885 5.248 5.248 0 0 0-3.569-.658c-1.248.181-2.435.708-3.563 1.581a10.617 10.617 0 0 0-2.771 3.18c-.915 1.585-1.262 2.996-1.041 4.232.222 1.236.969 2.222 2.242 2.957zm13.099 12.395c-.467-.27-.791-.699-.971-1.288-.165-.615-.104-1.169.181-1.662l12.904-22.532c.285-.493.714-.817 1.288-.971.6-.139 1.16-.058 1.679.242.546.315.875.765.988 1.35.153.573.08 1.12-.22 1.64l-7.251 12.649c1.631-.305 3.602-.779 5.912-1.42 2.31-.64 4.324-1.279 6.042-1.915.716-.28 1.373-.247 1.97.098.52.3.851.716.994 1.249.168.548.103 1.082-.197 1.601-.255.442-.603.744-1.042.905-1.201.52-2.636 1.025-4.305 1.516a68.181 68.181 0 0 1-4.448 1.225l1.772 11.78c.113.584.049 1.085-.191 1.5a2.288 2.288 0 0 1-1.355 1.088c-.548.169-1.095.096-1.64-.219-.624-.36-.99-.866-1.099-1.518a284.016 284.016 0 0 0-1.447-10.812l-.151-1.179c-.786.101-1.839.186-3.161.254l-3.262 5.651c-.285.494-.722.83-1.311 1.01-.574.154-1.133.073-1.679-.242zm24.889 14.37c-1.844-1.065-3.282-2.415-4.313-4.049a10.137 10.137 0 0 1-1.472-5.371c.024-1.961.613-3.941 1.768-5.942a12.095 12.095 0 0 1 3.791-4.046c1.624-1.072 3.36-1.68 5.21-1.825 1.876-.129 3.672.301 5.386 1.291 1.585.915 2.749 2.02 3.491 3.315.783 1.283 1.205 2.532 1.267 3.745.062 1.213-.11 2.171-.515 2.872a1.991 1.991 0 0 1-.874.794c-.388.192-.844.293-1.369.301l-13.909-.028c-.102 1.015.175 2.006.829 2.973.68.982 1.592 1.803 2.735 2.463 1.507.87 3.116 1.053 4.826.551.656-.175 1.204-.136 1.646.119.52.3.851.717.994 1.249a1.89 1.89 0 0 1-.175 1.562c-.24.416-.621.716-1.142.9-1.193.385-2.565.511-4.116.378-1.51-.145-2.863-.562-4.058-1.252zm11.025-12.705a3.286 3.286 0 0 0-.628-1.973c-.406-.616-.999-1.149-1.779-1.599-1.481-.855-3.02-1.068-4.618-.64-1.573.443-2.864 1.36-3.875 2.751-.277.36-.573.813-.888 1.358l11.788.103z" fill="#67FF31"/></svg>