<svg width="126" height="126" viewBox="0 0 126 126" fill="none" xmlns="http://www.w3.org/2000/svg">
<path d="M63 0L63.6579 58.0031L79.3056 2.14667L64.9287 58.3436L94.5 8.4404L66.0682 59.0015L107.548 18.4523L66.9985 59.9318L117.56 31.5L67.6563 61.0713L123.853 46.6944L67.9969 62.3421L126 63L67.9969 63.6579L123.853 79.3056L67.6563 64.9287L117.56 94.5L66.9985 66.0682L107.548 107.548L66.0682 66.9985L94.5 117.56L64.9287 67.6563L79.3056 123.853L63.6579 67.9969L63 126L62.3421 67.9969L46.6944 123.853L61.0713 67.6563L31.5 117.56L59.9318 66.9985L18.4523 107.548L59.0015 66.0682L8.4404 94.5L58.3436 64.9287L2.14667 79.3056L58.0031 63.6579L0 63L58.0031 62.3421L2.14667 46.6944L58.3436 61.0713L8.4404 31.5L59.0015 59.9318L18.4523 18.4523L59.9318 59.0015L31.5 8.4404L61.0713 58.3436L46.6944 2.14667L62.3421 58.0031L63 0Z" fill="black"/>
</svg>
